<svg width="95" height="19" viewBox="0 0 95 19" fill="none" xmlns="http://www.w3.org/2000/svg">
<path d="M11.6385 4.66657L14.8323 3.14519L13.8886 6.55462L13.7531 7.0445L14.2451 7.17201L17.6696 8.05948L14.7551 10.0647L14.3364 10.3528L14.6314 10.7667L16.6842 13.6478L13.1627 13.3105L12.6567 13.262L12.6166 13.7688L12.3373 17.2953L9.85645 14.7734L9.5 14.411L9.14355 14.7734L6.66273 17.2953L6.3834 13.7688L6.34327 13.262L5.83729 13.3105L2.31578 13.6478L4.36864 10.7667L4.6636 10.3528L4.24485 10.0647L1.33041 8.05948L4.75491 7.17201L5.24694 7.0445L5.11136 6.55462L4.16768 3.14519L7.36145 4.66657L7.82034 4.88516L8.03135 4.42274L9.5 1.20438L10.9686 4.42274L11.1797 4.88516L11.6385 4.66657Z" fill="#E9A7FF" stroke="#E9A7FF"/>
<path d="M28 1.15477L29.5741 4.43166L29.7857 4.87218L30.2309 4.67069L33.6438 3.12621L32.6468 6.54814L32.501 7.04883L33.0073 7.1735L36.612 8.06095L33.5565 10.0581L33.11 10.3499L33.4301 10.7766L35.5853 13.6501L31.8506 13.3103L31.3489 13.2646L31.307 13.7667L31.0095 17.3353L28.3473 14.7643L28 14.4289L27.6527 14.7643L24.9905 17.3353L24.693 13.7667L24.6511 13.2646L24.1494 13.3103L20.4147 13.6501L22.5699 10.7766L22.89 10.3499L22.4435 10.0581L19.388 8.06095L22.9927 7.1735L23.499 7.04883L23.3532 6.54814L22.3562 3.12621L25.7691 4.67069L26.2143 4.87218L26.4259 4.43166L28 1.15477Z" fill="#E9A7FF" stroke="#E9A7FF"/>
<path d="M48.6385 4.66657L51.8323 3.14519L50.8886 6.55462L50.7531 7.0445L51.2451 7.17201L54.6696 8.05948L51.7551 10.0647L51.3364 10.3528L51.6314 10.7667L53.6842 13.6478L50.1627 13.3105L49.6567 13.262L49.6166 13.7688L49.3373 17.2953L46.8564 14.7734L46.5 14.411L46.1436 14.7734L43.6627 17.2953L43.3834 13.7688L43.3433 13.262L42.8373 13.3105L39.3158 13.6478L41.3686 10.7667L41.6636 10.3528L41.2449 10.0647L38.3304 8.05948L41.7549 7.17201L42.2469 7.0445L42.1114 6.55462L41.1677 3.14519L44.3615 4.66657L44.8203 4.88516L45.0314 4.42274L46.5 1.20438L47.9686 4.42274L48.1797 4.88516L48.6385 4.66657Z" fill="#E9A7FF" stroke="#E9A7FF"/>
<path d="M66 1.15477L67.5741 4.43166L67.7857 4.87218L68.2309 4.67069L71.6438 3.12621L70.6468 6.54814L70.501 7.04883L71.0073 7.1735L74.612 8.06095L71.5565 10.0581L71.11 10.3499L71.4301 10.7766L73.5853 13.6501L69.8506 13.3103L69.3489 13.2646L69.307 13.7667L69.0095 17.3353L66.3473 14.7643L66 14.4289L65.6527 14.7643L62.9905 17.3353L62.693 13.7667L62.6511 13.2646L62.1494 13.3103L58.4147 13.6501L60.5699 10.7766L60.89 10.3499L60.4435 10.0581L57.388 8.06095L60.9927 7.1735L61.499 7.04883L61.3532 6.54814L60.3562 3.12621L63.7691 4.67069L64.2143 4.87218L64.4259 4.43166L66 1.15477Z" fill="#E9A7FF" stroke="#E9A7FF"/>
<path d="M87.6385 4.66657L90.8323 3.14519L89.8886 6.55462L89.7531 7.0445L90.2451 7.17201L93.6696 8.05948L90.7551 10.0647L90.3364 10.3528L90.6314 10.7667L92.6842 13.6478L89.1627 13.3105L88.6567 13.262L88.6166 13.7688L88.3373 17.2953L85.8564 14.7734L85.5 14.411L85.1436 14.7734L82.6627 17.2953L82.3834 13.7688L82.3433 13.262L81.8373 13.3105L78.3158 13.6478L80.3686 10.7667L80.6636 10.3528L80.2449 10.0647L77.3304 8.05948L80.7549 7.17201L81.2469 7.0445L81.1114 6.55462L80.1677 3.14519L83.3615 4.66657L83.8203 4.88516L84.0314 4.42274L85.5 1.20438L86.9686 4.42274L87.1797 4.88516L87.6385 4.66657Z" fill="#E9A7FF" stroke="#E9A7FF"/>
</svg>
