<svg width="90" height="88" viewBox="0 0 90 88" fill="none" xmlns="http://www.w3.org/2000/svg">
<path d="M54.3264 20.418L73.1513 11.4506L67.589 31.5466L67.4534 32.0365L67.9455 32.164L88.1303 37.395L70.9519 49.2141L70.5331 49.5022L70.8281 49.9161L82.9281 66.8978L62.1715 64.9097L61.6656 64.8612L61.6254 65.3679L59.979 86.1544L45.3564 71.2894L45 70.927L44.6436 71.2894L30.021 86.1544L28.3746 65.3679L28.3344 64.8612L27.8285 64.9097L7.07188 66.8978L19.1719 49.9161L19.4669 49.5022L19.0481 49.2141L1.86974 37.395L22.0545 32.164L22.5466 32.0365L22.411 31.5466L16.8487 11.4506L35.6736 20.418L36.1324 20.6366L36.3435 20.1742L45 1.20438L53.6565 20.1742L53.8676 20.6366L54.3264 20.418Z" stroke="#F5EFED"/>
</svg>
