<svg width="160" height="80" viewBox="0 0 160 80" fill="none" xmlns="http://www.w3.org/2000/svg">
<mask id="mask0_365_475" style="mask-type:alpha" maskUnits="userSpaceOnUse" x="4" y="16" width="153" height="49">
<g clip-path="url(#clip0_365_475)">
<path d="M4 57.6655L7.05546 50.1007C10.1109 51.9231 13.4846 52.8342 17.1767 52.8342C19.0863 52.8342 20.6989 52.4106 22.0145 51.5629C23.33 50.673 23.9878 49.444 23.9878 47.8758C23.9878 46.6894 23.5422 45.6512 22.651 44.7611C21.7599 43.8712 20.2746 42.8753 18.1952 41.7734C12.2964 38.6374 9.34704 34.8657 9.34704 30.4583C9.34704 26.2204 10.9384 22.8513 14.1212 20.351C17.3464 17.8082 21.3779 16.5369 26.2157 16.5369C30.2472 16.5369 33.6211 17.2361 36.3371 18.6346L33.4724 26.2628C31.1384 24.9914 28.4861 24.3769 25.5155 24.4193C23.4361 24.4193 21.8235 24.8643 20.6777 25.7543C19.5319 26.6018 18.959 27.6401 18.959 28.8691C18.959 30.0133 19.447 31.0092 20.4231 31.8568C21.4416 32.7044 23.033 33.7426 25.1972 34.9716C30.8839 37.8957 33.7271 41.6674 33.7271 46.2866C33.7271 50.8638 32.0719 54.4234 28.762 56.9662C25.4519 59.4665 21.2931 60.7166 16.2855 60.7166C10.8536 60.6742 6.75841 59.6573 4 57.6655Z" fill="#000C94"/>
<path d="M33.2178 60.0162L41.1748 17.934C44.0604 17.2136 47.7949 16.8534 52.378 16.8534C57.3007 16.8534 61.0987 17.7857 63.7724 19.6504C66.8701 21.7269 68.4193 24.7782 68.4193 28.8042C68.4193 33.8473 66.4884 37.8521 62.6267 40.8186C59.1893 43.4884 54.6059 44.8234 48.8771 44.8234C48.4102 44.8234 47.9433 44.8234 47.4766 44.8234C47.0523 44.7811 46.6066 44.7387 46.1399 44.6963C45.673 44.6116 45.3336 44.569 45.1214 44.569L42.1933 60.0162H33.2178ZM48.9406 24.418L46.5216 37.0681C47.5827 37.28 48.771 37.3859 50.0865 37.3859C52.76 37.3859 54.9456 36.6443 56.6428 35.161C58.3404 33.6354 59.1893 31.7707 59.1893 29.567C59.1893 25.9648 57.0248 24.1637 52.6962 24.1637C51.2111 24.1637 49.959 24.2485 48.9406 24.418Z" fill="#009DDF"/>
<path fill-rule="evenodd" clip-rule="evenodd" d="M41.5406 18.281L33.7295 59.5923H41.8413L44.7039 44.4901C44.7419 44.2902 44.9171 44.1454 45.1208 44.1454C45.371 44.1454 45.7364 44.1928 46.1967 44.2758C46.6501 44.3171 47.0836 44.3582 47.4974 44.3996H48.8765C54.541 44.3996 59.0232 43.08 62.3657 40.484L62.3675 40.4826C66.1203 37.5997 67.9943 33.7213 67.9943 28.8042C67.9943 24.9059 66.5051 21.9928 63.5354 20.0022L63.529 19.9978C60.9545 18.2023 57.255 17.2771 52.3776 17.2771C47.9523 17.2771 44.3436 17.6147 41.5406 18.281ZM41.0714 17.5229C44.0037 16.7908 47.7764 16.4296 52.3776 16.4296C57.3437 16.4296 61.2391 17.3684 64.0117 19.3007C67.2357 21.4631 68.8432 24.6518 68.8432 28.8042C68.8432 33.9728 66.8557 38.1036 62.8859 41.1536C59.3536 43.897 54.6696 45.247 48.8765 45.247H47.4763C47.462 45.247 47.448 45.2465 47.4339 45.245C47.0109 45.2027 46.5667 45.1605 46.101 45.1182C46.0883 45.1172 46.0758 45.1154 46.0636 45.1131C45.8239 45.0697 45.6262 45.039 45.4674 45.0195L42.6098 60.0948C42.5718 60.295 42.3967 60.4398 42.1927 60.4398H33.2174C33.0909 60.4398 32.9713 60.3837 32.8905 60.2866C32.8099 60.1894 32.777 60.0613 32.8002 59.9375L40.7573 17.8554C40.7881 17.6928 40.9108 17.563 41.0714 17.5229ZM48.8703 23.9999C49.9197 23.8253 51.1965 23.7399 52.6959 23.7399C54.9087 23.7399 56.6473 24.1987 57.8372 25.189C59.042 26.1916 59.6132 27.6782 59.6132 29.567C59.6132 31.8955 58.7098 33.8732 56.9263 35.476L56.922 35.4799C55.1334 37.0429 52.8422 37.8096 50.0859 37.8096C48.7482 37.8096 47.5316 37.702 46.4382 37.4836C46.2097 37.4379 46.0608 37.217 46.1046 36.9885L48.5233 24.3385C48.5567 24.1642 48.6952 24.0291 48.8703 23.9999ZM49.301 24.7909L47.0183 36.7284C47.9411 36.8835 48.9632 36.9621 50.0859 36.9621C52.6757 36.9621 54.755 36.2463 56.3607 34.844C57.971 33.396 58.7643 31.6449 58.7643 29.567C58.7643 27.8536 58.2533 26.6385 57.2938 25.8401C56.3197 25.0293 54.8116 24.5875 52.6959 24.5875C51.366 24.5875 50.2356 24.6562 49.301 24.7909Z" fill="#009DDF"/>
<path d="M142.456 44.4774H136.564L138.692 33.1806L133.291 16.7899H139.592L141.351 23.8145C141.869 26.0054 142.224 27.6759 142.415 28.8262H142.497C143.724 26.6079 144.665 24.9236 145.32 23.7734L149.452 16.7899H156.49L144.584 33.0573L142.456 44.4774Z" fill="#000C94"/>
<path fill-rule="evenodd" clip-rule="evenodd" d="M132.948 16.5414C133.028 16.4313 133.155 16.3661 133.292 16.3661H139.592C139.787 16.3661 139.957 16.4984 140.004 16.6871L141.763 23.7116L141.765 23.717C142.143 25.3142 142.435 26.6402 142.64 27.6927C143.62 25.9263 144.39 24.5499 144.952 23.564L144.955 23.5578L149.088 16.5743C149.164 16.4453 149.303 16.3661 149.453 16.3661H156.49C156.65 16.3661 156.796 16.4557 156.869 16.598C156.941 16.7403 156.927 16.9111 156.833 17.0399L144.984 33.2296L142.874 44.5548C142.836 44.7555 142.661 44.9011 142.457 44.9011H136.565C136.439 44.9011 136.319 44.845 136.238 44.7479C136.158 44.6507 136.124 44.5229 136.148 44.3991L138.255 33.2094L132.888 16.9223C132.846 16.7932 132.868 16.6515 132.948 16.5414ZM133.878 17.2137L139.095 33.0481C139.118 33.116 139.123 33.1885 139.109 33.2589L137.076 44.0536H142.104L144.167 32.9798C144.179 32.9174 144.204 32.8584 144.242 32.8072L155.655 17.2137H149.695L145.688 23.9859C145.034 25.1337 144.095 26.8152 142.869 29.0311C142.794 29.1661 142.652 29.2499 142.497 29.2499H142.416C142.208 29.2499 142.031 29.0999 141.997 28.8954C141.809 27.7602 141.457 26.1017 140.94 23.9146L139.261 17.2137H133.878Z" fill="#000C94"/>
<path d="M106.697 44.2228L111.843 17.1269C114.231 16.7138 116.797 16.5073 119.541 16.5073C123.932 16.5073 127.294 17.5124 129.627 19.5226C132.07 21.5327 133.291 24.4379 133.291 28.2379C133.291 30.8814 132.783 33.3322 131.768 35.5902C130.752 37.8206 129.367 39.638 127.61 41.0424C124.564 43.5206 120.131 44.7598 114.313 44.7598C111.267 44.7598 108.728 44.5809 106.697 44.2228ZM117.03 21.4639L113.531 39.8033C114.244 39.8858 115.109 39.9272 116.124 39.9272C119.528 39.9272 122.148 38.8532 123.987 36.7054C125.908 34.53 126.869 31.7213 126.869 28.2792C126.869 26.0487 126.251 24.3277 125.016 23.1161C123.781 21.877 121.956 21.2574 119.541 21.2574C118.553 21.2574 117.716 21.3262 117.03 21.4639Z" fill="#000C94"/>
<path fill-rule="evenodd" clip-rule="evenodd" d="M112.206 17.4955L107.196 43.8763C109.121 44.1817 111.492 44.3359 114.314 44.3359C120.079 44.3359 124.401 43.1069 127.343 40.7138L127.345 40.7115C129.045 39.3526 130.391 37.5907 131.382 35.4157C132.371 33.2162 132.867 30.8253 132.867 28.2378C132.867 24.5361 131.683 21.7628 129.358 19.8496C129.355 19.8475 129.353 19.8455 129.35 19.8434C127.122 17.923 123.874 16.9311 119.542 16.9311C116.929 16.9311 114.484 17.1197 112.206 17.4955ZM111.771 16.7093C114.186 16.2916 116.776 16.0835 119.542 16.0835C123.99 16.0835 127.464 17.1007 129.901 19.1985C132.459 21.3055 133.716 24.3414 133.716 28.2378C133.716 30.9371 133.197 33.4475 132.155 35.7637L132.155 35.7655C131.115 38.0504 129.69 39.9226 127.877 41.3721C124.726 43.9346 120.183 45.1837 114.314 45.1837C111.253 45.1837 108.688 45.0038 106.624 44.64C106.512 44.6205 106.413 44.5568 106.349 44.4635C106.284 44.3704 106.26 44.2552 106.281 44.1439L111.427 17.0479C111.46 16.8744 111.597 16.7394 111.771 16.7093ZM116.947 21.0484C117.669 20.9034 118.536 20.8335 119.542 20.8335C122.025 20.8335 123.975 21.4711 125.316 22.8154C126.653 24.1279 127.294 25.9706 127.294 28.2792C127.294 31.8029 126.309 34.7168 124.308 36.9832C122.373 39.2427 119.623 40.3509 116.125 40.3509C115.099 40.3509 114.217 40.3092 113.483 40.2242C113.366 40.2106 113.259 40.149 113.189 40.0541C113.12 39.9592 113.092 39.8396 113.115 39.7239L116.614 21.3846C116.646 21.2152 116.778 21.0823 116.947 21.0484ZM117.393 21.8288L114.035 39.4274C114.634 39.4777 115.33 39.5033 116.125 39.5033C119.432 39.5033 121.924 38.4645 123.665 36.43L123.67 36.425C125.51 34.341 126.445 31.6383 126.445 28.2792C126.445 26.1278 125.852 24.529 124.72 23.4184L124.716 23.415C123.587 22.2822 121.888 21.6811 119.542 21.6811C118.706 21.6811 117.991 21.7315 117.393 21.8288Z" fill="#000C94"/>
<path d="M86.7174 27.6994L85.7124 32.7714H75.7047L74.4068 39.6039H85.6706L84.7075 44.7598H67.3721L72.7317 16.5073H89.4393L88.4343 21.6632H77.7985L76.626 27.6994H86.7174Z" fill="#000C94"/>
<path fill-rule="evenodd" clip-rule="evenodd" d="M72.3153 16.4284C72.3533 16.2283 72.5285 16.0835 72.7323 16.0835H89.4399C89.5666 16.0835 89.6867 16.1401 89.7673 16.2378C89.8479 16.3354 89.8805 16.464 89.8563 16.5883L88.8513 21.7441C88.8126 21.9432 88.6379 22.087 88.4349 22.087H78.149L77.1412 27.2755H86.718C86.845 27.2755 86.9653 27.3323 87.0459 27.4303C87.1265 27.5283 87.1589 27.6572 87.1344 27.7816L86.1295 32.8536C86.0902 33.0521 85.9158 33.1951 85.713 33.1951H76.0567L74.9197 39.1801H85.6712C85.7974 39.1801 85.917 39.2362 85.9976 39.3331C86.0782 39.43 86.1116 39.5578 86.0884 39.6816L85.1253 44.8374C85.0878 45.038 84.9126 45.1837 84.7081 45.1837H67.3727C67.2462 45.1837 67.1263 45.1273 67.0458 45.0302C66.9652 44.933 66.932 44.8049 66.9557 44.6809L72.3153 16.4284ZM73.0839 16.9311L67.885 44.3359H84.3557L85.1605 40.0277H74.4074C74.2809 40.0277 74.161 39.9714 74.0805 39.8742C73.9999 39.777 73.9667 39.6489 73.9904 39.5249L75.2884 32.6924C75.3264 32.4923 75.5016 32.3475 75.7053 32.3475H85.3645L86.2014 28.1231H76.6266C76.4999 28.1231 76.3798 28.0665 76.2992 27.9689C76.2186 27.8713 76.1857 27.7428 76.21 27.6186L77.3824 21.5825C77.4212 21.3832 77.5959 21.2394 77.7991 21.2394H88.085L88.9248 16.9311H73.0839Z" fill="#000C94"/>
<path d="M106.521 27.6994L105.516 32.7714H95.5087L94.2105 39.6039H105.474L104.511 44.7598H87.1758L92.5356 16.5073H109.243L108.238 21.6632H97.6022L96.4297 27.6994H106.521Z" fill="#000C94"/>
<path fill-rule="evenodd" clip-rule="evenodd" d="M92.1192 16.4284C92.1572 16.2283 92.3321 16.0835 92.5361 16.0835H109.243C109.37 16.0835 109.491 16.1401 109.571 16.2378C109.652 16.3354 109.684 16.464 109.66 16.5883L108.655 21.7441C108.616 21.9432 108.442 22.087 108.238 22.087H97.9528L96.9448 27.2755H106.522C106.649 27.2755 106.769 27.3323 106.85 27.4303C106.93 27.5283 106.963 27.6572 106.938 27.7816L105.933 32.8536C105.894 33.0521 105.719 33.1951 105.517 33.1951H95.8605L94.7235 39.1801H105.475C105.601 39.1801 105.721 39.2362 105.801 39.3331C105.882 39.43 105.915 39.5578 105.892 39.6816L104.929 44.8374C104.892 45.038 104.716 45.1837 104.512 45.1837H87.1763C87.05 45.1837 86.9302 45.1273 86.8496 45.0302C86.769 44.933 86.7359 44.8049 86.7593 44.6809L92.1192 16.4284ZM92.8877 16.9311L87.6886 44.3359H104.159L104.964 40.0277H94.2109C94.0847 40.0277 93.9649 39.9714 93.8843 39.8742C93.8034 39.777 93.7706 39.6489 93.794 39.5249L95.0922 32.6924C95.1302 32.4923 95.3051 32.3475 95.5091 32.3475H105.168L106.005 28.1231H96.4302C96.3037 28.1231 96.1836 28.0665 96.103 27.9689C96.0222 27.8713 95.9896 27.7428 96.0138 27.6186L97.1863 21.5825C97.2248 21.3832 97.3995 21.2394 97.6027 21.2394H107.889L108.729 16.9311H92.8877Z" fill="#000C94"/>
<path d="M54.9737 59.1956H51.9104C51.9259 58.9325 51.9491 58.5378 51.98 58.0115C52.0108 57.4696 52.034 57.1135 52.0496 56.9433H52.0032C51.075 58.6152 49.7985 59.451 48.1739 59.451C47.1528 59.451 46.3251 59.0873 45.6907 58.3598C45.0565 57.632 44.7393 56.68 44.7393 55.5035C44.7393 54.5127 44.9017 53.5607 45.2266 52.6472C45.567 51.7183 46.0543 50.8746 46.6887 50.1162C47.3385 49.3577 48.1971 48.7461 49.2647 48.2816C50.3322 47.8172 51.5314 47.5851 52.8618 47.5851C54.1924 47.5851 55.4457 47.7708 56.6215 48.1424L55.438 54.087C55.0821 55.9756 54.9273 57.6787 54.9737 59.1956ZM52.3513 52.8332L52.8618 50.209C52.5216 50.1471 52.2197 50.1162 51.9568 50.1162C50.9358 50.1162 50.0537 50.627 49.3112 51.6488C48.5839 52.6706 48.2203 53.7464 48.2203 54.8764C48.2203 55.4492 48.3363 55.9061 48.5683 56.2465C48.8006 56.5871 49.1408 56.7574 49.5896 56.7574C50.1465 56.7574 50.6802 56.4324 51.191 55.7823C51.7171 55.1164 52.1037 54.1334 52.3513 52.8332Z" fill="#009DDF"/>
<path fill-rule="evenodd" clip-rule="evenodd" d="M55.3793 59.589C55.2727 59.6988 55.1264 59.7607 54.9731 59.7607H51.9098C51.754 59.7607 51.6051 59.6965 51.4982 59.5834C51.3911 59.47 51.3358 59.3178 51.345 59.1626L51.3707 58.7235C50.5004 59.5692 49.433 60.0162 48.1733 60.0162C46.9993 60.0162 46.0119 59.5892 45.2635 58.7308C44.5207 57.879 44.1729 56.7852 44.1729 55.5035C44.1729 54.4497 44.3457 53.4336 44.6928 52.4582L44.6946 52.4531C45.0574 51.4631 45.5776 50.5626 46.2536 49.7539L46.258 49.7488C46.972 48.9153 47.905 48.2565 49.0382 47.7636L49.2642 48.2816C48.1965 48.7461 47.3379 49.3577 46.6882 50.1161C46.0537 50.8748 45.5664 51.7185 45.226 52.6472C44.9011 53.5606 44.7387 54.5127 44.7387 55.5035C44.7387 56.68 45.0557 57.6322 45.6901 58.3597C46.3245 59.0872 47.1523 59.451 48.1733 59.451C49.483 59.451 50.5665 58.9079 51.4235 57.8212C51.6298 57.5599 51.8226 57.2672 52.0026 56.9433H52.049C52.0483 56.9509 52.0475 56.9593 52.047 56.9676C52.0371 57.0805 52.0246 57.2606 52.0093 57.5082C52.0003 57.653 51.9904 57.8207 51.9794 58.0115L51.9098 59.1956H54.9731C54.9675 59.0101 54.965 58.8217 54.9652 58.6306C54.9678 57.2591 55.1251 55.7447 55.4375 54.087L56.6209 48.1424C55.4451 47.7707 54.1918 47.5851 52.8612 47.5851C51.5309 47.5851 50.3316 47.8172 49.2642 48.2816L49.0382 47.7636C50.1865 47.2642 51.4641 47.0199 52.8612 47.0199C54.2453 47.0199 55.5563 47.2134 56.7918 47.6036C57.0667 47.6906 57.2322 47.9701 57.1761 48.2525L55.9929 54.1943C55.643 56.0519 55.4938 57.7119 55.5387 59.1783C55.5436 59.3313 55.4859 59.4794 55.3793 59.589ZM51.7953 52.7253L52.1913 50.6902C52.1077 50.6841 52.0294 50.6813 51.9562 50.6813C51.1604 50.6813 50.4341 51.0659 49.7701 51.9785C49.1043 52.9148 48.7855 53.8772 48.7855 54.8764C48.7855 55.3787 48.8881 55.712 49.0357 55.9286C49.152 56.0993 49.3083 56.1924 49.589 56.1924C49.9007 56.1924 50.288 56.0156 50.7452 55.4335L50.7462 55.4322C51.193 54.8668 51.5556 53.984 51.7948 52.7276L51.7953 52.7253ZM49.3106 51.6488C50.0532 50.627 50.9352 50.1161 51.9562 50.1161C52.0643 50.1161 52.1788 50.1215 52.3 50.1319C52.4736 50.1468 52.6608 50.1724 52.8612 50.209L52.3507 52.8331C52.1031 54.1334 51.7165 55.1164 51.1904 55.7822C50.6797 56.4324 50.146 56.7573 49.589 56.7573C49.1402 56.7573 48.8001 56.5871 48.5678 56.2465C48.3357 55.906 48.2197 55.4494 48.2197 54.8764C48.2197 53.7463 48.5833 52.6705 49.3106 51.6488Z" fill="#009DDF"/>
<path d="M60.0411 63.689H56.6221L58.8778 52.1992C59.0836 51.1382 59.3052 49.6537 59.5426 47.7467H62.6056L62.392 49.4769H62.4394C63.4209 48.2157 64.6635 47.5851 66.1672 47.5851C67.3703 47.5851 68.2962 47.9927 68.9455 48.8077C69.5944 49.623 69.9188 50.6458 69.9188 51.8763C69.9188 53.9067 69.2856 55.6679 68.0193 57.1597C66.753 58.6362 65.1383 59.3747 63.1756 59.3747C62.2889 59.3747 61.5767 59.2207 61.0384 58.9133H60.9673L60.0411 63.689ZM61.9406 53.8836L61.5132 56.3292C61.9248 56.683 62.4473 56.8598 63.0805 56.8598C63.9668 56.8598 64.7267 56.3599 65.3599 55.3602C66.0089 54.3605 66.3335 53.2837 66.3335 52.1303C66.3335 51.6227 66.2068 51.1919 65.9535 50.8381C65.7161 50.469 65.3441 50.2843 64.8377 50.2843C64.1884 50.2843 63.595 50.6151 63.0567 51.2764C62.5184 51.9225 62.1464 52.7916 61.9406 53.8836Z" fill="#009DDF"/>
<path fill-rule="evenodd" clip-rule="evenodd" d="M60.5961 63.7963C60.5446 64.0621 60.3118 64.2541 60.0407 64.2541H56.6214C56.4523 64.2541 56.2922 64.1786 56.1846 64.0482C56.0772 63.9175 56.0336 63.7461 56.0663 63.5802L58.3217 52.0919V52.0912C58.524 51.0486 58.7438 49.5791 58.9807 47.6769C59.0159 47.3938 59.2566 47.1815 59.5422 47.1815H62.605C62.7672 47.1815 62.9217 47.251 63.029 47.3722C63.1364 47.4935 63.1866 47.6551 63.1667 47.8156L63.1451 47.9907C64.0139 47.3492 65.0247 47.0199 66.1668 47.0199C67.5125 47.0199 68.6141 47.4844 69.3877 48.4561C70.1303 49.3886 70.4842 50.5423 70.4842 51.8763C70.4842 54.035 69.8069 55.9268 68.4503 57.5252L68.4486 57.5272C67.0736 59.1304 65.3016 59.9396 63.1749 59.9396C62.5155 59.9396 61.9167 59.8604 61.3932 59.6856L60.5961 63.7963ZM60.0407 63.689H56.6214L58.8771 52.1995C59.0829 51.1381 59.3045 49.6537 59.5422 47.7466H62.605L62.3913 49.4769H62.439C62.6305 49.2306 62.8322 49.0084 63.0438 48.81C63.9157 47.9935 64.9566 47.5851 66.1668 47.5851C67.3699 47.5851 68.2958 47.9927 68.9448 48.8077C69.5938 49.623 69.9184 50.6458 69.9184 51.8763C69.9184 53.9066 69.2852 55.6678 68.0189 57.1596C66.7526 58.6362 65.1379 59.3746 63.1749 59.3746C62.5231 59.3746 61.9654 59.2914 61.5019 59.125C61.3496 59.0705 61.2076 59.0068 61.0755 58.9343C61.0627 58.9272 61.0502 58.9203 61.038 58.9132H60.9669L60.0407 63.689ZM64.8814 55.058L64.8847 55.0527C65.4763 54.1413 65.7672 53.171 65.7672 52.1302C65.7672 51.7201 65.6665 51.4093 65.4929 51.1668C65.4872 51.1592 65.4821 51.1513 65.477 51.1435C65.361 50.9631 65.1856 50.8495 64.837 50.8495C64.4089 50.8495 63.9626 51.0587 63.4954 51.6328L63.4911 51.6379C63.0319 52.1893 62.6907 52.9592 62.4971 53.9845L62.1317 56.0755C62.3852 56.217 62.6953 56.2946 63.08 56.2946C63.7094 56.2946 64.3127 55.9558 64.8814 55.058ZM61.5128 56.3291L61.9402 53.8836C62.146 52.7915 62.518 51.9225 63.0563 51.2764C63.5944 50.6151 64.188 50.2843 64.837 50.2843C65.3437 50.2843 65.7157 50.469 65.9531 50.8381C66.2063 51.1919 66.3331 51.6226 66.3331 52.1302C66.3331 53.2836 66.0085 54.3605 65.3595 55.3601C64.7263 56.3598 63.9664 56.8598 63.08 56.8598C62.4469 56.8598 61.9244 56.683 61.5128 56.3291Z" fill="#009DDF"/>
<path d="M80.4062 56.334L80.6425 58.8065C79.4295 59.4246 77.9883 59.7336 76.3185 59.7336C74.6962 59.7336 73.4597 59.3057 72.609 58.4498C71.7583 57.5782 71.333 56.3657 71.333 54.8122C71.333 53.6078 71.5931 52.4666 72.1128 51.3888C72.6483 50.2952 73.436 49.3919 74.4756 48.6786C75.5311 47.9496 76.7283 47.5851 78.067 47.5851C79.2485 47.5851 80.2093 47.9019 80.9496 48.5361C81.7059 49.17 82.0838 50.018 82.0838 51.0798C82.0838 53.806 79.5792 55.1055 74.5702 54.9789C74.6016 55.47 74.7276 55.8665 74.9481 56.1676C75.4051 56.7698 76.1454 57.0709 77.1692 57.0709C78.3192 57.0709 79.3981 56.8253 80.4062 56.334ZM78.894 51.056C78.894 50.7709 78.7759 50.541 78.5396 50.3665C78.3192 50.1765 78.0199 50.0814 77.6417 50.0814C76.9173 50.0814 76.3109 50.3269 75.8225 50.8183C75.3498 51.3096 75.0427 51.8644 74.901 52.4826C76.2713 52.4983 77.2796 52.4032 77.9253 52.1972C78.5712 51.9753 78.894 51.595 78.894 51.056Z" fill="#009DDF"/>
<path fill-rule="evenodd" clip-rule="evenodd" d="M78.0666 47.8677C76.7827 47.8677 75.6421 48.2159 74.6361 48.911L74.6354 48.9115C73.6347 49.5979 72.8804 50.4642 72.3669 51.5123C71.8661 52.5513 71.6156 53.6502 71.6156 54.8122C71.6156 56.3127 72.0249 57.4463 72.8103 58.2517C73.5916 59.037 74.745 59.451 76.3184 59.451C77.8736 59.451 79.2121 59.1773 80.342 58.6393L80.162 56.7553C79.2208 57.1543 78.2222 57.3535 77.1688 57.3535C76.0901 57.3535 75.2502 57.0338 74.7223 56.338L74.7195 56.3342C74.4584 55.9778 74.3212 55.525 74.2875 54.9969C74.2824 54.9178 74.3107 54.8401 74.3658 54.7828C74.4209 54.7257 74.4977 54.6943 74.577 54.6963C77.0655 54.7592 78.8862 54.4652 80.0745 53.8483C80.6643 53.5424 81.092 53.1604 81.3735 52.7078C81.6547 52.2558 81.8006 51.7168 81.8006 51.0798C81.8006 50.0941 81.4541 49.328 80.7673 48.7524L80.765 48.7504C80.0862 48.1693 79.1955 47.8677 78.0666 47.8677ZM74.3146 48.446C75.4195 47.683 76.6731 47.3025 78.0666 47.3025C79.3001 47.3025 80.3305 47.6345 81.1322 48.3207C81.9572 49.0127 82.3664 49.9424 82.3664 51.0798C82.3664 51.8061 82.1989 52.4516 81.8542 53.0061C81.5096 53.5599 80.9981 54.0061 80.3354 54.3498C79.0764 55.0032 77.2501 55.299 74.8876 55.2676C74.9398 55.5712 75.0385 55.8119 75.1747 55.9989C75.5608 56.5062 76.2011 56.7883 77.1688 56.7883C78.2768 56.7883 79.3133 56.5521 80.2818 56.0801C80.3652 56.0395 80.4631 56.0423 80.5442 56.0874C80.6251 56.1328 80.6786 56.2148 80.6875 56.3071L80.9237 58.7796C80.9349 58.895 80.8742 59.0053 80.7707 59.0581C79.5099 59.7006 78.0228 60.0162 76.3184 60.0162C74.6471 60.0162 73.3277 59.5745 72.4079 58.6489L72.4061 58.6469C71.4907 57.7091 71.0498 56.4179 71.0498 54.8122C71.0498 53.5657 71.3191 52.3826 71.8576 51.2663L71.8584 51.2647C72.4161 50.126 73.2364 49.1857 74.3146 48.446ZM75.6212 50.6194C76.1654 50.0718 76.8452 49.7988 77.6413 49.7988C78.0626 49.7988 78.4315 49.9043 78.7159 50.1458C79.0165 50.3711 79.1767 50.6818 79.1767 51.056C79.1767 51.3865 79.0757 51.6828 78.8673 51.9281C78.6631 52.1688 78.3711 52.3428 78.0169 52.4643L78.011 52.4663C77.3197 52.6868 76.2737 52.7809 74.8972 52.7649C74.8118 52.7639 74.7312 52.7243 74.6782 52.6574C74.6254 52.5901 74.6058 52.5026 74.6249 52.4194C74.7789 51.7477 75.1127 51.1481 75.6181 50.6227L75.6212 50.6194ZM76.0243 51.0156C75.6768 51.3776 75.4287 51.7726 75.2764 52.2015C76.4443 52.197 77.2914 52.1021 77.8359 51.9291C78.1261 51.8289 78.3176 51.7021 78.4356 51.5628C78.5501 51.4278 78.6108 51.2645 78.6108 51.056C78.6108 50.8634 78.5376 50.7166 78.3711 50.5938C78.3652 50.5895 78.3596 50.5852 78.3543 50.5803C78.199 50.4464 77.972 50.3637 77.6413 50.3637C76.9893 50.3637 76.4568 50.5816 76.0243 51.0156Z" fill="#009DDF"/>
<path d="M85.5667 59.1684H82.3672L83.5892 52.427C83.6483 52.1181 83.8334 50.589 84.1445 47.8398H86.922C86.922 47.8862 86.8922 48.2106 86.833 48.8128C86.7886 49.3998 86.7517 49.8478 86.7218 50.1565H86.7886C87.6773 48.4422 88.8327 47.5851 90.2546 47.5851C90.5213 47.5851 90.7212 47.5927 90.8546 47.6082L90.2324 50.8515C90.1286 50.8361 89.9583 50.8284 89.7214 50.8284C87.944 50.8284 86.8108 52.2031 86.322 54.9523L85.5667 59.1684Z" fill="#009DDF"/>
<path fill-rule="evenodd" clip-rule="evenodd" d="M86.0854 59.2616C86.0402 59.5129 85.8215 59.6958 85.5659 59.6958H82.3665C82.2101 59.6958 82.0617 59.6266 81.9615 59.5066C81.8613 59.3866 81.8195 59.2283 81.8473 59.0746L83.0695 52.3329L83.0703 52.3279C83.1246 52.0448 83.3069 50.5464 83.6198 47.7807C83.6499 47.5141 83.8755 47.3127 84.1441 47.3127H86.9213C87.2127 47.3127 87.4489 47.5488 87.4489 47.84C87.4489 47.8941 87.4379 48.0206 87.4246 48.1657C87.4198 48.2167 87.4144 48.2746 87.4083 48.339C88.1937 47.51 89.14 47.058 90.2541 47.058C90.5252 47.058 90.7501 47.0656 90.9148 47.0846C91.0604 47.1014 91.1925 47.1782 91.2792 47.2964C91.3662 47.4146 91.3998 47.5635 91.372 47.7074L90.7501 50.9507C90.6968 51.2285 90.4339 51.4147 90.1539 51.3731C90.0922 51.3639 89.9558 51.3556 89.7209 51.3556C88.9903 51.3556 88.4117 51.6285 87.9451 52.1944C87.4601 52.7829 87.0776 53.7131 86.8409 55.0444L86.8407 55.0451L86.0854 59.2616ZM86.8325 48.8128C86.8494 48.6419 86.8636 48.4932 86.8756 48.3671C86.9062 48.0488 86.9213 47.873 86.9213 47.84H84.1441C83.833 50.589 83.6478 52.1181 83.5887 52.4271L82.3665 59.1687H85.5659L86.3215 54.9523C86.8101 52.2031 87.9433 50.8285 89.7209 50.8285C89.9578 50.8285 90.1282 50.8361 90.2319 50.8515L90.8539 47.6082C90.732 47.5942 90.5545 47.5864 90.3212 47.5854C90.2993 47.5851 90.2768 47.5851 90.2541 47.5851C89.1038 47.5851 88.1279 48.146 87.3265 49.2679C87.1373 49.5327 86.9577 49.829 86.7879 50.1565H86.7214C86.7224 50.1458 86.7234 50.1349 86.7244 50.1238C86.7377 49.9853 86.752 49.8204 86.768 49.6294C86.7815 49.467 86.7961 49.2854 86.8116 49.085C86.8183 48.9978 86.8254 48.9072 86.8325 48.8128Z" fill="#009DDF"/>
</g>
</mask>
<g mask="url(#mask0_365_475)">
<rect x="-13.8506" y="1.97534" width="184.875" height="85.425" fill="#F5EFED"/>
</g>
<defs>
<clipPath id="clip0_365_475">
<rect width="153" height="48.45" fill="white" transform="translate(4 16)"/>
</clipPath>
</defs>
</svg>
