<svg width="87" height="20" viewBox="0 0 87 20" fill="none" xmlns="http://www.w3.org/2000/svg">
<path d="M2.76784 19.5593H0.848633L3.99435 14.7358H6.2385L9.32618 19.5593H7.39547L6.83831 18.7559H3.32885L2.76784 19.5593ZM3.99435 17.5962H6.20759L5.08934 15.8891L3.99435 17.5962Z" fill="#B3B3B3"/>
<path d="M16.0192 16.4751V16.4622C16.0315 16.3751 16.0157 16.2868 15.9735 16.2065C15.9314 16.1262 15.8643 16.0568 15.7793 16.0055C15.6193 15.9233 15.2582 15.8823 14.6959 15.8824H13.6706C13.0695 15.8824 12.6845 15.9429 12.5156 16.0638C12.3466 16.1848 12.2621 16.4406 12.2621 16.8315V17.502C12.2621 17.8498 12.3576 18.0884 12.5485 18.2179C12.7393 18.3476 13.116 18.4123 13.6783 18.4123H14.6959C15.2014 18.4123 15.5497 18.374 15.7406 18.2974C15.8311 18.2637 15.9071 18.2076 15.9583 18.1366C16.0095 18.0657 16.0334 17.9832 16.0269 17.9005C16.0249 17.8571 16.0198 17.8138 16.0115 17.7709V17.7547H13.9414V16.7796H17.8417V18.3637C17.8417 18.8173 17.6411 19.1396 17.24 19.3307C16.8388 19.5218 16.1404 19.6174 15.1448 19.6174H13.1869C12.7411 19.6279 12.2952 19.6008 11.8559 19.5364C11.592 19.491 11.3435 19.3969 11.1284 19.2611C10.902 19.1141 10.727 18.9188 10.6216 18.6958C10.5063 18.4241 10.4525 18.1368 10.463 17.8486V16.5335C10.463 15.8425 10.6584 15.3603 11.0492 15.087C11.44 14.8139 12.15 14.6773 13.1792 14.6773H15.1447C15.6145 14.6679 16.0843 14.6918 16.5493 14.7485C16.8059 14.7804 17.0498 14.8626 17.2612 14.9883C17.4461 15.1099 17.5851 15.2735 17.6617 15.4595C17.7558 15.6992 17.7997 15.9508 17.7913 16.203C17.7913 16.2743 17.7907 16.3294 17.7894 16.3683C17.7881 16.4071 17.7861 16.4428 17.7836 16.4751L16.0192 16.4751Z" fill="#B3B3B3"/>
<path d="M25.9817 15.9117H21.4431V16.6406H25.7184V17.6545H21.4431V18.3931H26.0515V19.5593H19.6865V14.7358H25.9817V15.9117Z" fill="#B3B3B3"/>
<path d="M35.654 19.5593H33.0771L29.6219 16.051V19.5593H27.8652V14.7358H30.4693L33.9013 18.2733V14.7358H35.654V19.5593Z" fill="#B3B3B3"/>
<path d="M43.094 16.4752V16.4267C43.1015 16.3477 43.085 16.2684 43.0461 16.1962C43.0072 16.124 42.9472 16.0612 42.8715 16.0136C42.6568 15.9124 42.4111 15.8668 42.1654 15.8824H40.757C40.1534 15.8824 39.7658 15.9434 39.5943 16.0654C39.4227 16.1874 39.3369 16.4428 39.3369 16.8315V17.502C39.3369 17.8498 39.4324 18.0884 39.6232 18.2179C39.8141 18.3476 40.192 18.4124 40.757 18.4123H41.7785C42.3381 18.4123 42.7051 18.3653 42.8792 18.2714C43.0533 18.1774 43.1404 18.0031 43.1404 17.7482V17.6965H44.9241C44.9247 17.7084 44.926 17.7203 44.9281 17.7321C44.9359 17.8724 44.9397 17.9771 44.9395 18.0462C44.949 18.306 44.9018 18.5651 44.8005 18.8108C44.7143 19.0041 44.5622 19.1719 44.3631 19.2934C44.1377 19.4227 43.8805 19.5079 43.6106 19.5429C43.1542 19.6011 42.6927 19.626 42.2311 19.6174H40.2656C39.8211 19.6281 39.3764 19.6009 38.9384 19.5364C38.6749 19.4901 38.4266 19.3962 38.211 19.2611C37.9846 19.1141 37.8095 18.9188 37.7041 18.6958C37.5888 18.4241 37.535 18.1368 37.5455 17.8487V16.5335C37.5455 15.8425 37.7415 15.3603 38.1336 15.0871C38.5257 14.814 39.2363 14.6774 40.2656 14.6773H42.2311C42.6983 14.6679 43.1656 14.6918 43.628 14.7486C43.8832 14.7808 44.1259 14.863 44.3362 14.9883C44.5229 15.1091 44.6634 15.2729 44.7403 15.4596C44.8345 15.6993 44.8783 15.9508 44.87 16.203C44.87 16.2743 44.8693 16.3289 44.868 16.3666C44.8666 16.4044 44.8636 16.4407 44.8582 16.4752L43.094 16.4752Z" fill="#B3B3B3"/>
<path d="M50.8858 19.5593H49.1254V17.8262L45.9487 14.7358H48.1117L50.0037 16.6535L51.9847 14.7358H54.0704L50.8858 17.8262V19.5593Z" fill="#B3B3B3"/>
<path d="M80.4339 0.800781H75.7851L72.4951 5.84541C74.6833 6.77627 74.3876 9.11334 74.3876 9.11334C74.3876 9.11334 73.1566 7.62656 71.5667 7.26893L69.2686 10.7928H73.2442L74.4064 9.12859H81.6764L82.8305 10.7928H86.8302L80.4339 0.800781ZM75.7851 6.72623L78.0533 3.18979L80.3698 6.72623H75.7851Z" fill="#F5EFED"/>
<path d="M66.1506 6.84702C66.8666 6.70387 67.377 6.42203 67.6816 6.00152C67.9861 5.58105 68.1384 4.93907 68.1385 4.07559C68.1385 2.8319 67.7964 1.97516 67.1124 1.50538C66.4284 1.0357 65.1406 0.800829 63.2491 0.800781H53.6626V3.68605C54.6684 3.395 56.2785 3.3087 56.2785 3.3087L57.1442 3.29096L57.3176 3.29041H63.1127C63.5722 3.29041 63.9062 3.37989 64.1146 3.55886C64.3231 3.7378 64.4273 4.02412 64.4272 4.4178C64.4272 4.91434 64.3297 5.2577 64.1348 5.44788C63.9396 5.63807 63.5989 5.73313 63.1127 5.73306H57.3176L57.1411 5.72617H55.9668C55.9668 5.72617 54.5946 5.71741 53.6626 6.04744V10.7928H57.3176V8.23613H62.7521C63.4039 8.23613 63.8408 8.30993 64.0626 8.45754C64.2843 8.6052 64.3952 8.87585 64.3953 9.2695V10.7928H68.0422V8.74609C68.0657 8.30043 67.8979 7.86244 67.5692 7.51134C67.1961 7.1657 66.6976 6.93229 66.1506 6.84702Z" fill="#F5EFED"/>
<path d="M46.8294 8.52004C46.8035 8.52105 46.7805 8.52468 46.7535 8.52468H46.6633C46.3015 8.53346 45.9222 8.53346 45.5256 8.52468H40.0205V6.72623H46.4093C47.7593 6.6835 49.7842 6.52418 51.1436 5.98625C50.9784 5.69398 50.7334 5.43831 50.4285 5.23982C50.0112 4.98313 49.5328 4.80462 49.0258 4.71641C48.366 4.59864 47.6925 4.5435 47.018 4.55202H40.0205V3.10921H50.7291V0.800781H36.3816V10.7928H47.018C48.5729 10.7928 49.7111 10.5456 50.4325 10.0513C51.1193 9.58076 51.4751 8.81572 51.5081 7.7633C50.5992 8.07047 49.0511 8.44979 46.8294 8.52004Z" fill="#F5EFED"/>
<path d="M33.8687 2.53234C33.6885 2.075 33.3494 1.67309 32.8948 1.37809C32.4176 1.09937 31.8707 0.915737 31.2957 0.841262C30.625 0.733895 29.6111 0.6802 28.2539 0.680176H23.9656C22.6137 0.680176 21.605 0.733871 20.9398 0.841262C20.3654 0.917407 19.8188 1.10089 19.3407 1.37809C18.8755 1.67096 18.5286 2.07611 18.3468 2.53902C18.1437 3.02671 18.0421 3.68882 18.0422 4.52535V5.13678C19.2287 4.73683 20.548 4.70998 21.7562 5.06119C21.7708 4.34203 21.9729 3.84869 22.3666 3.58584C22.7753 3.31303 23.637 3.1766 24.9515 3.17655H27.2839C28.5717 3.17655 29.4267 3.31188 29.8489 3.58254C30.2709 3.85324 30.482 4.35541 30.4821 5.08905V6.50493C30.4821 7.23871 30.2711 7.74091 29.8489 8.01152C29.4267 8.28222 28.5717 8.41755 27.2839 8.4175H24.9676C23.685 8.4175 22.8287 8.28328 22.3986 8.01482C22.2998 7.95298 22.2123 7.87942 22.1389 7.79647C21.4166 6.98613 20.2908 6.49183 19.0893 6.59373C18.7367 6.62251 18.3869 6.67133 18.0422 6.73985V7.24982C18.0173 7.8739 18.1203 8.49694 18.3468 9.09187C18.5374 9.54089 18.8834 9.9322 19.3407 10.2159C19.8115 10.4936 20.3514 10.6783 20.9198 10.7561C21.5663 10.8611 22.5869 10.9137 23.9817 10.9138H28.2539C29.6325 10.9138 30.6504 10.8612 31.3077 10.7561C31.8794 10.6808 32.4225 10.4959 32.8948 10.2159C33.3465 9.91997 33.685 9.51993 33.8687 9.06501C34.0963 8.45871 34.2006 7.82468 34.1772 7.18943V4.40455C34.1992 3.77047 34.0949 3.13775 33.8687 2.53234Z" fill="#F5EFED"/>
<path d="M11.6281 6.54816C10.9907 6.55886 10.3548 6.60231 9.72386 6.67825C8.949 6.79988 7.9199 6.51608 7.76252 6.19172H6.41863L6.80606 6.11063L6.24912 5.97887H7.72619C7.72619 5.97887 7.43561 5.06661 8.69475 4.61048C9.79055 4.21352 10.6939 4.68369 11.6998 4.77904L16.9041 0.800794H12.0628L7.28564 4.51173H5.75477V0.800781H2.11572V10.7928H5.75477V7.01479H7.28563L12.688 10.7928H17.7538L11.6281 6.54816Z" fill="#F5EFED"/>
</svg>
